<svg width="60" height="60" viewBox="0 0 60 60" fill="none" xmlns="http://www.w3.org/2000/svg">
<path d="M19.9981 55H39.9981C50.0481 55 51.8481 50.975 52.3731 46.075L54.2481 26.075C54.9231 19.975 53.1731 15 42.4981 15H17.4981C6.8231 15 5.0731 19.975 5.7481 26.075L7.6231 46.075C8.1481 50.975 9.9481 55 19.9981 55Z" stroke="#78787B" stroke-width="1.5" stroke-miterlimit="10" stroke-linecap="round" stroke-linejoin="round"/>
<path d="M20 15V13C20 8.575 20 5 28 5H32C40 5 40 8.575 40 13V15" stroke="#78787B" stroke-width="1.5" stroke-miterlimit="10" stroke-linecap="round" stroke-linejoin="round"/>
<path d="M35 32.5V35C35 35.025 35 35.025 35 35.05C35 37.775 34.975 40 30 40C25.05 40 25 37.8 25 35.075V32.5C25 30 25 30 27.5 30H32.5C35 30 35 30 35 32.5Z" stroke="#78787B" stroke-width="1.5" stroke-miterlimit="10" stroke-linecap="round" stroke-linejoin="round"/>
<path d="M54.125 27.5C48.35 31.7 41.75 34.2 35 35.05" stroke="#78787B" stroke-width="1.5" stroke-miterlimit="10" stroke-linecap="round" stroke-linejoin="round"/>
<path d="M6.55078 28.1758C12.1758 32.0258 18.5258 34.3508 25.0008 35.0758" stroke="#78787B" stroke-width="1.5" stroke-miterlimit="10" stroke-linecap="round" stroke-linejoin="round"/>
</svg>
