<svg width="24" height="24" viewBox="0 0 24 24" fill="none" xmlns="http://www.w3.org/2000/svg">
<g clip-path="url(#clip0_102_421)">
<path d="M16.1904 4.95239H15.4285V4.19048C15.4285 2.30006 13.8905 0.761906 11.9999 0.761906C10.1093 0.761906 8.57135 2.30002 8.57135 4.19048V4.95239H7.80945V4.19048C7.80945 1.87983 9.68928 0 11.9999 0C14.3106 0 16.1904 1.87983 16.1904 4.19048V4.95239Z" fill="#785550"/>
<path d="M0.952393 12.9523V22.4762C0.952393 23.3177 1.63461 24 2.47621 24H21.5238C22.3654 24 23.0476 23.3177 23.0476 22.4762V12.9523H0.952393Z" fill="#694B4B"/>
<path d="M5.52383 17.1428H18.4762C20.2972 17.1428 21.9298 16.3359 23.0476 15.0657V12.9523H0.952393V22.4762C0.952393 23.3178 1.63461 24 2.47621 24H21.5238C22.3654 24 23.0476 23.3177 23.0476 22.4762H6.66669C4.98355 22.4762 3.61906 21.1117 3.61906 19.4285V17.8046C3.61906 17.3344 4.04042 16.9759 4.50378 17.0557C4.83533 17.1128 5.17602 17.1428 5.52383 17.1428Z" fill="#5A4146"/>
<path d="M18.4762 16.3809H5.52377C2.57824 16.3809 0.19043 13.9931 0.19043 11.0476V6.47614C0.19043 6.05534 0.531539 5.71423 0.952336 5.71423H23.0476C23.4684 5.71423 23.8095 6.05534 23.8095 6.47614V11.0476C23.8095 13.9931 21.4217 16.3809 18.4762 16.3809Z" fill="#785550"/>
<path d="M8.57145 4.19049H7.80954C7.59912 4.19049 7.42859 4.36102 7.42859 4.57144V5.7143H8.9524V4.57144C8.9524 4.36102 8.78187 4.19049 8.57145 4.19049Z" fill="#5A4146"/>
<path d="M16.1905 4.19049H15.4286C15.2181 4.19049 15.0476 4.36102 15.0476 4.57144V5.7143H16.5714V4.57144C16.5714 4.36102 16.4008 4.19049 16.1905 4.19049Z" fill="#5A4146"/>
<path d="M19.2381 8.76192H4.38093C3.11859 8.76192 2.09521 7.73859 2.09521 6.4762V5.71429H21.5238V6.4762C21.5238 7.73854 20.5004 8.76192 19.2381 8.76192Z" fill="#8C5F5F"/>
<path d="M17.1428 18.2857H16.7618C16.5514 18.2857 16.3809 18.1152 16.3809 17.9048V14.0952C16.3809 13.8849 16.5514 13.7143 16.7618 13.7143H17.1428C17.3531 13.7143 17.5237 13.8849 17.5237 14.0952V17.9048C17.5237 18.1152 17.3532 18.2857 17.1428 18.2857Z" fill="#5A4146"/>
<path d="M17.7143 17.5238H16.1905C15.7697 17.5238 15.4286 17.1827 15.4286 16.7619V16.1905H18.4762V16.7619C18.4762 17.1827 18.1351 17.5238 17.7143 17.5238Z" fill="#E1A546"/>
<path d="M17.9048 16.7619H16C15.6844 16.7619 15.4286 16.506 15.4286 16.1905C15.4286 15.8749 15.6844 15.6191 16 15.6191H17.9048C18.2204 15.6191 18.4762 15.8749 18.4762 16.1905C18.4762 16.506 18.2204 16.7619 17.9048 16.7619Z" fill="#FFC850"/>
<path d="M7.2381 18.2857H6.85715C6.64677 18.2857 6.4762 18.1152 6.4762 17.9048V14.0952C6.4762 13.8849 6.64677 13.7143 6.85715 13.7143H7.2381C7.44848 13.7143 7.61906 13.8849 7.61906 14.0952V17.9048C7.61906 18.1152 7.44848 18.2857 7.2381 18.2857Z" fill="#5A4146"/>
<path d="M7.80952 17.5238H6.28571C5.86491 17.5238 5.5238 17.1827 5.5238 16.7619V16.1905H8.57143V16.7619C8.57143 17.1827 8.23037 17.5238 7.80952 17.5238Z" fill="#E1A546"/>
<path d="M8.0001 16.7619H6.09533C5.77972 16.7619 5.52393 16.506 5.52393 16.1905C5.52393 15.8749 5.77977 15.6191 6.09533 15.6191H8.0001C8.31571 15.6191 8.5715 15.8749 8.5715 16.1905C8.57146 16.506 8.31566 16.7619 8.0001 16.7619Z" fill="#FFC850"/>
</g>
<defs>
<clipPath id="clip0_102_421">
<rect width="24" height="24" fill="white"/>
</clipPath>
</defs>
</svg>
