<svg width="24" height="24" viewBox="0 0 24 24" fill="none" xmlns="http://www.w3.org/2000/svg">
<g clip-path="url(#clip0_102_1337)">
<path d="M13.7116 18.9183C13.1742 18.7258 12.5958 18.6219 11.9998 18.6219C11.3994 18.6219 10.8232 18.7265 10.2878 18.9182L7.32959 21.6863L9.02572 24H14.9734L16.6702 21.6862C16.1194 20.4232 15.059 19.4006 13.7116 18.9183Z" fill="#7CE3FF"/>
<path d="M11.9998 18.6219C11.3994 18.6219 10.8232 18.7265 10.2878 18.9182C8.99105 19.3826 7.90177 20.3739 7.32959 21.6863L9.02572 24H9.89387V23.7143C9.89633 21.5016 11.2167 19.5975 13.1122 18.7448C12.7526 18.6643 12.3798 18.6219 11.9998 18.6219Z" fill="#55DAFE"/>
<path d="M10.2878 18.9182C10.5884 19.7066 11.1898 20.3311 11.9999 20.7643C12.81 20.3311 13.411 19.7066 13.7116 18.9183L10.2878 18.9182Z" fill="#FFBF9D"/>
<path d="M9.02577 22.9157C8.95015 22.8707 8.87482 22.8246 8.79992 22.7777C8.27559 22.4489 7.77174 22.0749 7.32964 21.6863C7.05855 22.3081 6.90759 22.9938 6.90759 23.7143V24H9.02572V23.7143V22.9157H9.02577Z" fill="#FFBF9D"/>
<path d="M2.46397 11.9069C3.77335 11.9069 4.83481 10.8454 4.83481 9.53605C4.83481 8.22668 3.77335 7.16522 2.46397 7.16522C1.1546 7.16522 0.0931396 8.22668 0.0931396 9.53605C0.0931396 10.8454 1.1546 11.9069 2.46397 11.9069Z" fill="#FFBF9D"/>
<path d="M21.5359 11.9069C22.8452 11.9069 23.9067 10.8454 23.9067 9.53605C23.9067 8.22668 22.8452 7.16522 21.5359 7.16522C20.2265 7.16522 19.165 8.22668 19.165 9.53605C19.165 10.8454 20.2265 11.9069 21.5359 11.9069Z" fill="#FFBF9D"/>
<path d="M11.9999 0L2.46399 9.53606L6.73778 15.379C8.3649 17.6035 10.9556 18.9183 13.7117 18.9183C14.0383 18.859 14.3591 18.7831 14.6732 18.6915C18.6385 17.5356 21.5359 13.8744 21.5359 9.53602L11.9999 0Z" fill="#FFD4BD"/>
<path d="M5.62508 9.53607H2.46399C2.46399 13.8744 5.36147 17.5357 9.32664 18.6915C10.1749 18.9388 11.0718 19.0719 11.9999 19.0719C12.5758 19.0719 13.1472 19.0208 13.7117 18.9183C9.19751 18.1652 5.62508 14.264 5.62508 9.53607Z" fill="#FFBF9D"/>
<path d="M7.00887 13.4419C7.94231 13.4419 8.69901 12.8473 8.69901 12.1139C8.69901 11.3805 7.94231 10.7859 7.00887 10.7859C6.07543 10.7859 5.31873 11.3805 5.31873 12.1139C5.31873 12.8473 6.07543 13.4419 7.00887 13.4419Z" fill="#FF8E9E"/>
<path d="M16.9754 13.4419C17.9089 13.4419 18.6656 12.8473 18.6656 12.1139C18.6656 11.3805 17.9089 10.7859 16.9754 10.7859C16.042 10.7859 15.2853 11.3805 15.2853 12.1139C15.2853 12.8473 16.042 13.4419 16.9754 13.4419Z" fill="#FF8E9E"/>
<path d="M19.9733 4.30322L17.5351 5.53524L16.7823 7.72735C18.0718 8.85598 19.7606 9.53513 21.5359 9.53542C21.5358 7.60329 20.9611 5.80523 19.9733 4.30322Z" fill="#E8B5B1"/>
<path d="M19.7275 0.911479C19.1138 1.31267 18.4635 1.66137 17.7824 1.95265C17.3723 1.63949 16.936 1.35879 16.4774 1.11444L5.08972 2.96461L7.0724 9.10098C7.15618 9.36025 7.39763 9.53588 7.67008 9.53574L11.1179 9.53405C15.8459 9.44486 19.7773 6.20481 21.0176 1.85694C21.2349 1.09522 20.3905 0.478078 19.7275 0.911479Z" fill="#D6948C"/>
<path d="M13.5804 0.130382C13.0663 0.0446197 12.5383 0 11.9999 0C9.28052 0 6.82692 1.13843 5.0897 2.9646C3.46262 4.67503 2.46404 6.98883 2.46399 9.53592L7.67006 9.53568C7.25573 8.9109 7.15906 8.1373 7.35371 7.4133C7.84028 5.60354 8.93655 4.03688 10.4319 2.96335C11.4101 2.26112 12.5587 1.76958 13.8188 1.55932L16.4774 1.11443C15.5864 0.639549 14.6118 0.30239 13.5804 0.130382Z" fill="#CE857A"/>
<path d="M8.61962 10.4055C8.4196 10.4055 8.25745 10.5677 8.25745 10.7677V11.4172C8.25745 11.6173 8.4196 11.7794 8.61962 11.7794C8.81964 11.7794 8.98179 11.6173 8.98179 11.4172V10.7677C8.98179 10.5677 8.81964 10.4055 8.61962 10.4055Z" fill="#313D40"/>
<path d="M15.3802 10.4055C15.1802 10.4055 15.0181 10.5677 15.0181 10.7677V11.4172C15.0181 11.6173 15.1802 11.7794 15.3802 11.7794C15.5803 11.7794 15.7424 11.6173 15.7424 11.4172V10.7677C15.7424 10.5677 15.5803 10.4055 15.3802 10.4055Z" fill="#313D40"/>
<path d="M13.129 11.1248C12.9782 10.9934 12.7495 11.0091 12.618 11.1599C12.4619 11.339 12.2367 11.4417 11.9999 11.4417C11.763 11.4417 11.5378 11.339 11.3817 11.1599C11.2503 11.0091 11.0216 10.9935 10.8707 11.1248C10.7199 11.2563 10.7042 11.485 10.8356 11.6358C11.1293 11.9728 11.5536 12.1661 11.9998 12.1661C12.446 12.1661 12.8704 11.9728 13.164 11.6358C13.2955 11.485 13.2798 11.2563 13.129 11.1248Z" fill="#313D40"/>
<path d="M16.6701 21.6862C16.1647 22.1305 15.5786 22.5558 14.9734 22.916V24H17.0922V23.7143C17.0922 22.9938 16.9413 22.308 16.6701 21.6862Z" fill="#FFD4BD"/>
</g>
<defs>
<clipPath id="clip0_102_1337">
<rect width="24" height="24" fill="white"/>
</clipPath>
</defs>
</svg>
