<svg width="24" height="24" viewBox="0 0 24 24" fill="none" xmlns="http://www.w3.org/2000/svg">
<path d="M17.625 2.625L19.125 1.125C19.3651 1.36509 19.5 1.69078 19.5 2.03034V10.7197C19.5 11.0593 19.3651 11.3849 19.125 11.625C18.8849 11.8651 18.5592 12 18.2197 12H5.78034C5.44078 12 5.11514 11.8651 4.875 11.625L6.375 10.125H17.625V2.625Z" fill="#FABE19"/>
<path d="M6.375 10.125L4.875 11.625C4.63491 11.3849 4.5 11.0592 4.5 10.7197V2.03034C4.5 1.69078 4.63491 1.36514 4.875 1.125C5.11509 0.884906 5.44078 0.75 5.78034 0.75H18.2197C18.5593 0.75 18.8849 0.884906 19.125 1.125L17.625 2.625H6.375V10.125Z" fill="#F5871E"/>
<path d="M6.375 2.625H17.625V10.125H6.375V2.625Z" fill="#696469"/>
<path d="M12 21.9375C10.3988 21.9375 8.89348 21.314 7.76126 20.1817L4.85224 17.2727C4.63259 17.053 4.63259 16.6969 4.85224 16.4772C5.07195 16.2575 5.42805 16.2575 5.64776 16.4772L8.55677 19.3862C9.47646 20.306 10.6993 20.8125 12 20.8125C13.3007 20.8125 14.5235 20.306 15.4432 19.3863L18.3522 16.4773C18.5719 16.2576 18.9281 16.2576 19.1478 16.4773C19.3674 16.697 19.3674 17.0531 19.1478 17.2728L16.2387 20.1818C15.1065 21.314 13.6012 21.9375 12 21.9375Z" fill="#D7322D"/>
<path d="M19.1477 16.4773C18.928 16.2576 18.5718 16.2576 18.3522 16.4773L15.4432 19.3863C14.5235 20.306 13.3006 20.8125 12 20.8125C10.6993 20.8125 9.47644 20.306 8.5567 19.3863L5.64769 16.4772C5.42799 16.2576 5.07188 16.2576 4.85217 16.4772L5.24995 16.875L8.15897 19.784C9.17766 20.8027 10.5593 21.375 12 21.375C13.4406 21.375 14.8223 20.8027 15.8409 19.784L18.75 16.875L19.1477 16.4773Z" fill="#F04B37"/>
<path d="M4.5 15.75C5.53553 15.75 6.375 14.9105 6.375 13.875C6.375 12.8395 5.53553 12 4.5 12C3.46447 12 2.625 12.8395 2.625 13.875C2.625 14.9105 3.46447 15.75 4.5 15.75Z" fill="#F5871E"/>
<path d="M4.5 12L4.77891 12.5578C4.84209 12.6842 4.875 12.8235 4.875 12.9648C4.875 13.4675 4.46752 13.875 3.96487 13.875H2.625C2.625 12.8395 3.46448 12 4.5 12Z" fill="#FABE19"/>
<path d="M5.25 17.625H3.75C3.33577 17.625 3 17.2892 3 16.875V16.125C3 15.7108 3.33577 15.375 3.75 15.375H5.25C5.66423 15.375 6 15.7108 6 16.125V16.875C6 17.2892 5.66423 17.625 5.25 17.625Z" fill="#FABE19"/>
<path d="M3.75 17.625H5.25V21.75H3.75V17.625Z" fill="#F5871E"/>
<path d="M4.5 21.75H3.75V18.375C4.16423 18.375 4.5 18.7108 4.5 19.125V21.75Z" fill="#FABE19"/>
<path d="M5.625 23.25H3.375C3.16791 23.25 3 23.0821 3 22.875V22.5C3 22.0858 3.33577 21.75 3.75 21.75H5.25C5.66423 21.75 6 22.0858 6 22.5V22.875C6 23.0821 5.83209 23.25 5.625 23.25Z" fill="#FABE19"/>
<path d="M6 22.5H3V22.875C3 23.0821 3.16791 23.25 3.375 23.25H5.625C5.83209 23.25 6 23.0821 6 22.875V22.5Z" fill="#F5871E"/>
<path d="M4.5 16.875H3C3 17.2892 3.33577 17.625 3.75 17.625H5.25C5.66423 17.625 6 17.2892 6 16.875V16.125H5.25C4.83577 16.125 4.5 16.4608 4.5 16.875Z" fill="#F5871E"/>
<path d="M3.75 13.5C3.95711 13.5 4.125 13.3321 4.125 13.125C4.125 12.9179 3.95711 12.75 3.75 12.75C3.54289 12.75 3.375 12.9179 3.375 13.125C3.375 13.3321 3.54289 13.5 3.75 13.5Z" fill="#FFDC37"/>
<path d="M19.5 15.75C20.5355 15.75 21.375 14.9105 21.375 13.875C21.375 12.8395 20.5355 12 19.5 12C18.4645 12 17.625 12.8395 17.625 13.875C17.625 14.9105 18.4645 15.75 19.5 15.75Z" fill="#F5871E"/>
<path d="M19.5 12L19.7789 12.5578C19.8421 12.6842 19.875 12.8235 19.875 12.9648C19.875 13.4675 19.4675 13.875 18.9649 13.875H17.625C17.625 12.8395 18.4645 12 19.5 12Z" fill="#FABE19"/>
<path d="M20.25 17.625H18.75C18.3358 17.625 18 17.2892 18 16.875V16.125C18 15.7108 18.3358 15.375 18.75 15.375H20.25C20.6642 15.375 21 15.7108 21 16.125V16.875C21 17.2892 20.6642 17.625 20.25 17.625Z" fill="#FABE19"/>
<path d="M18.75 17.625H20.25V21.75H18.75V17.625Z" fill="#F5871E"/>
<path d="M19.5 21.75H18.75V18.375C19.1642 18.375 19.5 18.7108 19.5 19.125V21.75Z" fill="#FABE19"/>
<path d="M20.625 23.25H18.375C18.1679 23.25 18 23.0821 18 22.875V22.5C18 22.0858 18.3358 21.75 18.75 21.75H20.25C20.6642 21.75 21 22.0858 21 22.5V22.875C21 23.0821 20.8321 23.25 20.625 23.25Z" fill="#FABE19"/>
<path d="M21 22.5H18V22.875C18 23.0821 18.1679 23.25 18.375 23.25H20.625C20.8321 23.25 21 23.0821 21 22.875V22.5Z" fill="#F5871E"/>
<path d="M19.5 16.875H18C18 17.2892 18.3358 17.625 18.75 17.625H20.25C20.6642 17.625 21 17.2892 21 16.875V16.125H20.25C19.8358 16.125 19.5 16.4608 19.5 16.875Z" fill="#F5871E"/>
<path d="M18.75 13.5C18.9571 13.5 19.125 13.3321 19.125 13.125C19.125 12.9179 18.9571 12.75 18.75 12.75C18.5429 12.75 18.375 12.9179 18.375 13.125C18.375 13.3321 18.5429 13.5 18.75 13.5Z" fill="#FFDC37"/>
<path d="M17.625 8.25L15.9053 6.53034C15.5658 6.19078 15.1052 6 14.625 6C14.1448 6 13.6842 6.19078 13.3447 6.53034L9.75 10.125H17.625V8.25Z" fill="#647DB4"/>
<path d="M6.375 6L7.71966 4.65534C8.05922 4.31578 8.51977 4.125 9 4.125C9.48023 4.125 9.94078 4.31578 10.2803 4.65534L15.75 10.125H6.375V6Z" fill="#6EA5D7"/>
<path d="M14.625 4.875C15.0392 4.875 15.375 4.53921 15.375 4.125C15.375 3.71079 15.0392 3.375 14.625 3.375C14.2108 3.375 13.875 3.71079 13.875 4.125C13.875 4.53921 14.2108 4.875 14.625 4.875Z" fill="#FABE19"/>
</svg>
