<svg width="37" height="36" viewBox="0 0 37 36" fill="none" xmlns="http://www.w3.org/2000/svg">
<rect x="0.5" width="36" height="36" rx="18" fill="#F8333C"/>
<path d="M17.668 9.66797H16.0013C11.8346 9.66797 10.168 11.3346 10.168 15.5013V20.5013C10.168 24.668 11.8346 26.3346 16.0013 26.3346H21.0013C25.168 26.3346 26.8346 24.668 26.8346 20.5013V18.8346" stroke="white" stroke-width="1.5" stroke-linecap="round" stroke-linejoin="round"/>
<path d="M21.8675 10.5164L15.3009 17.0831C15.0509 17.3331 14.8009 17.8247 14.7509 18.1831L14.3925 20.6914C14.2592 21.5997 14.9009 22.2331 15.8092 22.1081L18.3175 21.7497C18.6675 21.6997 19.1592 21.4497 19.4175 21.1997L25.9842 14.6331C27.1175 13.4997 27.6509 12.1831 25.9842 10.5164C24.3175 8.84972 23.0009 9.38306 21.8675 10.5164Z" stroke="white" stroke-width="1.5" stroke-miterlimit="10" stroke-linecap="round" stroke-linejoin="round"/>
<path d="M20.9258 11.457C21.4841 13.4487 23.0424 15.007 25.0424 15.5737" stroke="white" stroke-width="1.5" stroke-miterlimit="10" stroke-linecap="round" stroke-linejoin="round"/>
</svg>
