<svg width="24" height="24" viewBox="0 0 24 24" fill="none" xmlns="http://www.w3.org/2000/svg">
<g clip-path="url(#clip0_102_566)">
<path d="M18.882 11.1003H5.11757C4.90623 11.1003 4.73523 11.2715 4.73523 11.4826V14.2194C4.73523 16.5439 7.92619 18.3648 11.9998 18.3648C16.0734 18.3648 19.2643 16.5438 19.2643 14.2194V11.4826C19.2643 11.2715 19.0933 11.1003 18.882 11.1003Z" fill="#5D647F"/>
<path d="M12.0117 11.1003H5.11757C4.90623 11.1003 4.73523 11.2715 4.73523 11.4826V14.2194C4.73523 16.5439 7.92619 18.3648 11.9998 18.3648C12.0038 18.3648 12.0077 18.3645 12.0117 18.3645V11.1003Z" fill="#5C546A"/>
<path d="M23.0732 7.01845L13.3537 2.85256C12.4934 2.48403 11.5054 2.48422 10.6444 2.85352L0.927139 7.01807C0.355103 7.2632 0 7.80198 0 8.42405C0 9.04594 0.355103 9.58413 0.926757 9.82907L10.6459 13.9949C11.0757 14.179 11.5372 14.271 11.999 14.271C12.4617 14.271 12.9243 14.1788 13.3552 13.994L23.0725 9.82941C23.6445 9.58447 24 9.0457 24 8.42362C24 7.80178 23.6449 7.26339 23.0732 7.01845Z" fill="#527992"/>
<path d="M2.44118 16.4531C2.22984 16.4531 2.05884 16.2819 2.05884 16.0708V10.2749C2.05884 9.90185 2.32543 9.58503 2.69286 9.52137L10.4051 8.18001C10.6131 8.14416 10.811 8.28324 10.8472 8.49124C10.8834 8.69923 10.7441 8.89729 10.5358 8.93351L2.82353 10.2749V16.0707C2.82353 16.2819 2.65252 16.4531 2.44118 16.4531Z" fill="#5C546A"/>
<path d="M2.4412 17.2178C2.86353 17.2178 3.20589 16.8754 3.20589 16.4531C3.20589 16.0308 2.86353 15.6884 2.4412 15.6884C2.01888 15.6884 1.67651 16.0308 1.67651 16.4531C1.67651 16.8754 2.01888 17.2178 2.4412 17.2178Z" fill="#FF9600"/>
<path d="M10.4705 8.0415V8.80619C10.4705 9.22849 11.1552 9.57088 11.9998 9.57088C12.8445 9.57088 13.5292 9.22849 13.5292 8.80619V8.0415H10.4705Z" fill="#FF9600"/>
<path d="M11.9998 8.80618C12.8445 8.80618 13.5292 8.46381 13.5292 8.04148C13.5292 7.61916 12.8445 7.27679 11.9998 7.27679C11.1552 7.27679 10.4705 7.61916 10.4705 8.04148C10.4705 8.46381 11.1552 8.80618 11.9998 8.80618Z" fill="#FFD200"/>
<path d="M1.65546 17.9793L1.38026 21.0066C1.3599 21.2305 1.53621 21.4236 1.76103 21.4236H3.21772C3.44254 21.4236 3.61885 21.2305 3.59849 21.0066L3.32329 17.9793C3.2841 17.548 2.92245 17.2178 2.4894 17.2178H2.48935C2.0563 17.2178 1.6947 17.548 1.65546 17.9793Z" fill="#FFD200"/>
</g>
<defs>
<clipPath id="clip0_102_566">
<rect width="24" height="24" fill="white"/>
</clipPath>
</defs>
</svg>
