<svg width="32" height="32" viewBox="0 0 32 32" fill="none" xmlns="http://www.w3.org/2000/svg">
<g clip-path="url(#clip0_19_1823)">
<path d="M22 8H10C8.897 8 8 8.897 8 10V22C8 23.103 8.897 24 10 24H22C23.103 24 24 23.103 24 22V10C24 8.897 23.103 8 22 8Z" fill="#1976D2"/>
<path d="M21.5 16H19V14C19 13.448 19.448 13.5 20 13.5H21V11H19C17.343 11 16 12.343 16 14V16H14V18.5H16V24H19V18.5H20.5L21.5 16Z" fill="#FAFAFA"/>
</g>
<rect x="0.25" y="0.25" width="31.5" height="31.5" rx="15.75" stroke="#D8D8D8" stroke-width="0.5"/>
<defs>
<clipPath id="clip0_19_1823">
<rect width="16" height="16" fill="white" transform="translate(8 8)"/>
</clipPath>
</defs>
</svg>
