<svg width="24" height="24" viewBox="0 0 24 24" fill="none" xmlns="http://www.w3.org/2000/svg">
<g clip-path="url(#clip0_102_511)">
<path d="M20.4391 9.28954C20.4391 9.28954 24 12.9741 24 18.6215C24 18.6215 23.449 18.8229 22.4581 19.0556C22.2398 19.1063 22.0008 19.1594 21.7415 19.2116C21.4498 19.2705 21.1326 19.3294 20.7916 19.3849C20.5617 19.4226 20.3208 19.4588 20.0697 19.4931C18.96 19.6433 17.6494 19.7529 16.1823 19.7529C14.3275 19.7529 12.7224 19.5781 11.4582 19.3656C9.50629 19.0382 8.36475 18.6215 8.36475 18.6215C8.36475 12.974 11.9257 9.28954 11.9257 9.28954V6.9861L10.0057 5.40946L8.36475 4.06218L11.4982 1.25315C11.8822 0.90885 12.3559 0.720975 12.8373 0.688631C13.0619 0.673678 13.2874 0.692475 13.5071 0.745116C13.862 0.8301 14.1996 1.00349 14.4864 1.26421L14.8206 1.56843C15.5923 2.27151 16.7724 2.27151 17.5446 1.56843L17.8788 1.26421C18.1656 1.00344 18.5032 0.8301 18.8581 0.745116C19.5491 0.579506 20.3039 0.748491 20.8664 1.25315L24 4.06218L21.3508 6.23765L20.4391 6.98615V9.28954Z" fill="#80B4FB"/>
<path d="M13.0242 5.31067V9.51325C13.0242 9.51325 11.5707 13.9289 11.5707 16.0884C11.5707 16.948 11.5195 18.1866 11.4582 19.3658C9.50629 19.0384 8.36475 18.6217 8.36475 18.6217C8.36475 12.9742 11.9257 9.2897 11.9257 9.2897V4.73889H12.4524C12.7682 4.73884 13.0242 4.99483 13.0242 5.31067Z" fill="#61A2F9"/>
<path d="M12.8374 0.688782C11.746 1.70527 10.4808 3.84403 10.0057 5.40961L8.36475 4.06233L11.4982 1.2533C11.8822 0.909 12.356 0.721172 12.8374 0.688782Z" fill="#61A2F9"/>
<path d="M18.8582 0.7453C18.7428 1.28858 17.8378 5.28261 16.1825 5.86255C14.5271 5.28261 13.6226 1.28853 13.5072 0.7453C13.8621 0.830285 14.1997 1.00363 14.4865 1.26439L14.8207 1.56861C15.5924 2.27169 16.7726 2.27169 17.5447 1.56861L17.8789 1.26439C18.1657 1.00363 18.5032 0.830285 18.8582 0.7453Z" fill="#61A2F9"/>
<path d="M20.7917 19.385C20.5618 19.4227 20.3208 19.4589 20.0697 19.4932C20.0369 18.003 19.8834 16.5176 19.6124 15.0757C19.5757 14.8791 19.7051 14.6899 19.9017 14.6532C20.0982 14.6164 20.2875 14.7454 20.3247 14.9424C20.597 16.3935 20.754 17.8861 20.7917 19.385Z" fill="#61A2F9"/>
<path d="M22.4581 19.0557C22.2398 19.1064 22.0008 19.1595 21.7415 19.2116C21.6739 18.072 21.5343 16.9348 21.3267 15.8294C21.2895 15.6329 21.4189 15.4436 21.6159 15.4064C21.8125 15.3697 22.0018 15.4991 22.0385 15.6957C22.2447 16.7948 22.3857 17.9233 22.4581 19.0557Z" fill="#61A2F9"/>
<path d="M21.3508 6.23764L20.4391 6.98614V5.54577C20.4391 5.31711 20.7396 5.23288 20.8585 5.42825L21.3508 6.23764Z" fill="#61A2F9"/>
<path d="M16.1826 10.0217C14.7395 10.0217 13.2965 9.89672 11.8636 9.6466C11.6665 9.61224 11.5347 9.4246 11.569 9.22754C11.6034 9.03052 11.7911 8.89857 11.9881 8.93302C14.7714 9.41878 17.5937 9.41883 20.377 8.93302C20.5738 8.89861 20.7617 9.03047 20.7961 9.22754C20.8304 9.4246 20.6986 9.61219 20.5015 9.6466C19.0686 9.89672 17.6256 10.0217 16.1826 10.0217Z" fill="#FFD064"/>
<path d="M1.70323 15.3512C1.52741 15.3513 1.37319 15.223 1.34572 15.0438C1.12391 13.597 2.45633 12.5807 3.86698 11.5048C4.46581 11.0481 5.09975 10.5645 5.65203 10.0212C5.20653 9.7667 4.78794 9.50598 4.41566 9.23678C3.22541 8.37606 2.64683 7.51483 2.64683 6.60377C2.64683 5.16452 3.44652 4.55664 3.92323 4.32245C4.81259 3.88548 5.97922 4.03127 6.82639 4.68522C7.71997 5.37503 8.08817 6.4803 7.83645 7.71761C7.67173 8.52733 7.29589 9.21794 6.80862 9.82806C7.30719 10.0904 7.82652 10.3486 8.34214 10.605C10.9644 11.909 13.4413 13.1407 13.6201 14.9534C13.6398 15.1525 13.4943 15.3298 13.2952 15.3494C13.0959 15.3688 12.9189 15.2236 12.8992 15.0245C12.7597 13.6107 10.35 12.4125 8.01959 11.2536C7.44884 10.9698 6.86938 10.6816 6.31437 10.3858C5.69825 11.019 4.98144 11.5657 4.3062 12.0807C3.01775 13.0634 1.90498 13.9121 2.06164 14.9341C2.09197 15.1318 1.95627 15.3167 1.75855 15.347C1.74003 15.3498 1.72147 15.3512 1.70323 15.3512ZM5.03403 4.79861C4.75358 4.79861 4.48109 4.85542 4.24264 4.97256C3.6725 5.25269 3.37114 5.81678 3.37114 6.60377C3.37114 7.66675 4.59209 8.59802 6.15739 9.47523C6.62352 8.91541 6.98061 8.29098 7.12663 7.57323C7.39297 6.26388 6.77553 5.56103 6.38375 5.25864C5.99356 4.95742 5.50273 4.79861 5.03403 4.79861Z" fill="#407093"/>
<path d="M13.2596 14.7476C9.40765 14.5464 5.55565 14.5464 1.70365 14.7476C0.920883 14.7884 0.277992 15.3822 0.178664 16.1597C-0.0595547 18.0242 -0.0595547 19.8888 0.178664 21.7533C0.277992 22.5308 0.920836 23.1246 1.70365 23.1654C5.55565 23.3666 9.40765 23.3666 13.2596 23.1654C14.0424 23.1246 14.6853 22.5309 14.7846 21.7533C15.0229 19.8888 15.0229 18.0242 14.7846 16.1597C14.6853 15.3822 14.0425 14.7884 13.2596 14.7476Z" fill="#DB5C6E"/>
<path d="M2.40627 23.1998C2.17209 23.1892 1.93785 23.1776 1.70367 23.1656C0.9209 23.1245 0.278149 22.531 0.178681 21.7531C-0.0593975 19.8886 -0.0593975 18.0241 0.178681 16.1597C0.278149 15.3822 0.9209 14.7883 1.70367 14.7477C1.93785 14.7356 2.17209 14.724 2.40627 14.7134C1.9094 14.9593 1.54818 15.4412 1.47431 16.0202C1.22413 17.9779 1.22413 19.9355 1.47431 21.8927C1.54818 22.4716 1.9094 22.9536 2.40627 23.1998Z" fill="#D64553"/>
<path d="M14.7844 18.6306C14.6853 19.4081 14.0424 20.0016 13.2596 20.0423C9.40774 20.2439 5.55593 20.2439 1.70356 20.0423C0.920743 20.0016 0.277899 19.4081 0.178665 18.6306C0.126446 18.2213 0.0858993 17.812 0.0559461 17.4027C-0.0161007 18.4179 -0.0176945 19.4331 0.051493 20.4484C0.342962 20.8902 0.833227 21.1858 1.39118 21.2149C5.45182 21.4274 9.5119 21.4274 13.572 21.2149C14.1302 21.1858 14.6206 20.8899 14.912 20.4478C14.9812 19.432 14.9796 18.4162 14.9074 17.4005C14.8779 17.8105 14.8373 18.2206 14.7844 18.6306Z" fill="#D64553"/>
<path d="M9.432 21.3106C8.26786 21.3743 7.10372 21.3743 5.93953 21.3106C5.43005 21.2827 5.02388 20.8795 4.98286 20.3709C4.92661 19.6729 4.92661 18.9748 4.98286 18.2767C5.02383 17.7681 5.43 17.3649 5.93949 17.337C7.10363 17.2733 8.26781 17.2733 9.43195 17.337C9.94144 17.3649 10.3476 17.7681 10.3886 18.2767C10.4448 18.9748 10.4448 19.6729 10.3886 20.3709C10.3477 20.8795 9.94149 21.2827 9.432 21.3106Z" fill="#FFD064"/>
<path d="M7.68579 20.0716C7.2094 20.0716 6.72734 20.0602 6.24935 20.0379C6.22043 19.563 6.22043 19.0845 6.24935 18.6097C6.72734 18.5873 7.20945 18.576 7.68579 18.576C8.16213 18.576 8.6442 18.5873 9.12218 18.6097C9.1511 19.0845 9.1511 19.5631 9.12218 20.0379C8.6442 20.0602 8.16213 20.0716 7.68579 20.0716Z" fill="#DB5C6E"/>
<path d="M7.68575 20.4338C7.20472 20.4338 6.71572 20.4223 6.23235 20.3997C6.04756 20.3911 5.89902 20.2446 5.88777 20.0599C5.85805 19.5714 5.85805 19.0761 5.88777 18.5877C5.89902 18.403 6.04756 18.2566 6.23235 18.2479C6.7161 18.2252 7.2051 18.2138 7.68575 18.2138C8.16641 18.2138 8.65531 18.2252 9.13906 18.2479C9.32385 18.2565 9.47239 18.403 9.48364 18.5877C9.51336 19.0762 9.51336 19.5714 9.48364 20.0599C9.47239 20.2445 9.32385 20.391 9.13906 20.3997C8.65569 20.4223 8.16669 20.4338 7.68575 20.4338ZM6.59563 19.6898C7.3235 19.7159 8.04777 19.7159 8.77574 19.6898C8.78352 19.4461 8.78352 19.2015 8.77574 18.9579C8.04739 18.9317 7.32397 18.9317 6.59563 18.9579C6.58785 19.2015 6.58785 19.4461 6.59563 19.6898Z" fill="#FFC250"/>
</g>
<defs>
<clipPath id="clip0_102_511">
<rect width="24" height="24" fill="white"/>
</clipPath>
</defs>
</svg>
