<svg width="40" height="40" viewBox="0 0 40 40" fill="none" xmlns="http://www.w3.org/2000/svg">
<path d="M14.9987 36.6673H24.9987C33.332 36.6673 36.6654 33.334 36.6654 25.0007V15.0007C36.6654 6.66732 33.332 3.33398 24.9987 3.33398H14.9987C6.66536 3.33398 3.33203 6.66732 3.33203 15.0007V25.0007C3.33203 33.334 6.66536 36.6673 14.9987 36.6673Z" stroke="#F8333C" stroke-width="1.5" stroke-linecap="round" stroke-linejoin="round"/>
<path d="M15.0013 16.6667C16.8423 16.6667 18.3346 15.1743 18.3346 13.3333C18.3346 11.4924 16.8423 10 15.0013 10C13.1604 10 11.668 11.4924 11.668 13.3333C11.668 15.1743 13.1604 16.6667 15.0013 16.6667Z" stroke="#F8333C" stroke-width="1.5" stroke-linecap="round" stroke-linejoin="round"/>
<path d="M4.44922 31.5836L12.6659 26.0669C13.9826 25.1836 15.8826 25.2836 17.0659 26.3003L17.6159 26.7836C18.9159 27.9003 21.0159 27.9003 22.3159 26.7836L29.2492 20.8336C30.5492 19.7169 32.6492 19.7169 33.9492 20.8336L36.6659 23.1669" stroke="#F8333C" stroke-width="1.5" stroke-linecap="round" stroke-linejoin="round"/>
</svg>
