<svg width="32" height="32" viewBox="0 0 32 32" fill="none" xmlns="http://www.w3.org/2000/svg">
<g clip-path="url(#clip0_19_1819)">
<path d="M9.00005 9.08886C7.74272 10.3949 8.00005 11.7822 8.00005 15.9969C8.00005 19.4969 7.38938 23.0055 10.5854 23.8315C11.5834 24.0882 20.4261 24.0882 21.4227 23.8302C22.7534 23.4869 23.8361 22.4075 23.9841 20.5255C24.0047 20.2629 24.0047 11.7355 23.9834 11.4675C23.8261 9.46286 22.5921 8.30753 20.9661 8.07353C20.5934 8.01953 20.5187 8.00353 18.6067 8.00019C11.8247 8.00353 10.3381 7.70153 9.00005 9.08886V9.08886Z" fill="url(#paint0_linear_19_1819)"/>
<path d="M15.9986 10.0936C13.578 10.0936 11.2793 9.87826 10.4013 12.1316C10.0386 13.0623 10.0913 14.2709 10.0913 16.0016C10.0913 17.5203 10.0426 18.9476 10.4013 19.8709C11.2773 22.1256 13.5946 21.9096 15.9973 21.9096C18.3153 21.9096 20.7053 22.1509 21.594 19.8709C21.9573 18.9309 21.904 17.7403 21.904 16.0016C21.904 13.6936 22.0313 12.2036 20.912 11.0849C19.7786 9.95159 18.246 10.0936 15.996 10.0936H15.9986ZM15.4693 11.1583C20.5186 11.1503 21.1613 10.5889 20.8066 18.3869C20.6806 21.1449 18.5806 20.8423 15.9993 20.8423C11.2926 20.8423 11.1573 20.7076 11.1573 15.9989C11.1573 11.2356 11.5306 11.1609 15.4693 11.1569V11.1583ZM19.152 12.1389C18.7606 12.1389 18.4433 12.4563 18.4433 12.8476C18.4433 13.2389 18.7606 13.5563 19.152 13.5563C19.5433 13.5563 19.8606 13.2389 19.8606 12.8476C19.8606 12.4563 19.5433 12.1389 19.152 12.1389V12.1389ZM15.9986 12.9676C14.3233 12.9676 12.9653 14.3263 12.9653 16.0016C12.9653 17.6769 14.3233 19.0349 15.9986 19.0349C17.674 19.0349 19.0313 17.6769 19.0313 16.0016C19.0313 14.3263 17.674 12.9676 15.9986 12.9676V12.9676ZM15.9986 14.0323C18.602 14.0323 18.6053 17.9709 15.9986 17.9709C13.396 17.9709 13.392 14.0323 15.9986 14.0323Z" fill="white"/>
</g>
<rect x="0.25" y="0.25" width="31.5" height="31.5" rx="15.75" stroke="#D8D8D8" stroke-width="0.5"/>
<defs>
<linearGradient id="paint0_linear_19_1819" x1="9.03073" y1="22.9783" x2="23.901" y2="10.1082" gradientUnits="userSpaceOnUse">
<stop stop-color="#FFDD55"/>
<stop offset="0.5" stop-color="#FF543E"/>
<stop offset="1" stop-color="#C837AB"/>
</linearGradient>
<clipPath id="clip0_19_1819">
<rect width="16" height="16" fill="white" transform="translate(8 8)"/>
</clipPath>
</defs>
</svg>
