<svg width="24" height="24" viewBox="0 0 24 24" fill="none" xmlns="http://www.w3.org/2000/svg">
<g clip-path="url(#clip0_10_1402)">
<path d="M1.49971 1.63299C-0.386289 3.59199 -0.000289023 5.67299 -0.000289023 11.995C-0.000289023 17.245 -0.916289 22.508 3.87771 23.747C5.37471 24.132 18.6387 24.132 20.1337 23.745C22.1297 23.23 23.7537 21.611 23.9757 18.788C24.0067 18.394 24.0067 5.60299 23.9747 5.20099C23.7387 2.19399 21.8877 0.460985 19.4487 0.109985C18.8897 0.0289854 18.7777 0.00498536 15.9097 -1.46404e-05C5.73671 0.00498536 3.50671 -0.448015 1.49971 1.63299Z" fill="url(#paint0_linear_10_1402)"/>
<path d="M11.9978 3.13898C8.36681 3.13898 4.91881 2.81598 3.60181 6.19598C3.05781 7.59198 3.13681 9.40499 3.13681 12.001C3.13681 14.279 3.06381 16.42 3.60181 17.805C4.91581 21.187 8.39181 20.863 11.9958 20.863C15.4728 20.863 19.0578 21.225 20.3908 17.805C20.9358 16.395 20.8558 14.609 20.8558 12.001C20.8558 8.53899 21.0468 6.30398 19.3678 4.62598C17.6678 2.92598 15.3688 3.13898 11.9938 3.13898H11.9978ZM11.2038 4.73598C18.7778 4.72398 19.7418 3.88199 19.2098 15.579C19.0208 19.716 15.8708 19.262 11.9988 19.262C4.93881 19.262 4.73581 19.06 4.73581 11.997C4.73581 4.85198 5.29581 4.73998 11.2038 4.73398V4.73598ZM16.7278 6.20698C16.1408 6.20698 15.6648 6.68298 15.6648 7.26998C15.6648 7.85698 16.1408 8.33298 16.7278 8.33298C17.3148 8.33298 17.7908 7.85698 17.7908 7.26998C17.7908 6.68298 17.3148 6.20698 16.7278 6.20698ZM11.9978 7.44998C9.48481 7.44998 7.44781 9.48799 7.44781 12.001C7.44781 14.514 9.48481 16.551 11.9978 16.551C14.5108 16.551 16.5468 14.514 16.5468 12.001C16.5468 9.48799 14.5108 7.44998 11.9978 7.44998ZM11.9978 9.04698C15.9028 9.04698 15.9078 14.955 11.9978 14.955C8.09381 14.955 8.08781 9.04698 11.9978 9.04698Z" fill="white"/>
</g>
<defs>
<linearGradient id="paint0_linear_10_1402" x1="1.54573" y1="22.4671" x2="23.8512" y2="3.16196" gradientUnits="userSpaceOnUse">
<stop stop-color="#FFDD55"/>
<stop offset="0.5" stop-color="#FF543E"/>
<stop offset="1" stop-color="#C837AB"/>
</linearGradient>
<clipPath id="clip0_10_1402">
<rect width="24" height="24" fill="white"/>
</clipPath>
</defs>
</svg>
