<svg width="101" height="90" viewBox="0 0 101 90" fill="none" xmlns="http://www.w3.org/2000/svg">
<path fill-rule="evenodd" clip-rule="evenodd" d="M87.5063 31.7424C88.0197 28.4998 87.4936 25.1779 86.0033 22.2526C84.513 19.3274 82.1351 16.9489 79.2102 15.458C77.1615 14.408 74.9033 13.831 72.602 13.7695C70.2996 13.7024 68.0105 14.1406 65.8957 15.0533C65.4109 15.2646 65.0299 15.6599 64.8366 16.1521C64.6432 16.6443 64.6533 17.1932 64.8646 17.678C65.0759 18.1628 65.4711 18.5438 65.9634 18.7372C66.4556 18.9306 67.0045 18.9205 67.4893 18.7092C69.3916 17.881 71.4814 17.5788 73.5404 17.8339C75.5994 18.0891 77.5522 18.8923 79.1948 20.1597C80.8375 21.4271 82.1098 23.1123 82.8789 25.0392C83.648 26.9662 83.8857 29.0643 83.5672 31.1144C83.4839 31.6368 83.6116 32.1708 83.9221 32.5991C84.2325 33.0273 84.7004 33.3147 85.2228 33.3979C85.7451 33.4812 86.2792 33.3536 86.7074 33.0431C87.1357 32.7326 87.423 32.2647 87.5063 31.7424ZM49.4789 88.7736C39.6118 83.1773 26.6022 73.0469 16.5246 61.7158C8.50238 52.6875 2.29144 42.8359 0.848473 33.7379C-0.115631 27.6261 0.944977 21.3667 3.86865 15.9136C6.79232 10.4606 11.4187 6.11298 17.0427 3.53343C22.6667 0.953872 28.9799 0.283843 35.0201 1.62546C41.0602 2.96707 46.4961 6.24675 50.4993 10.9646C54.5015 6.24466 59.9375 2.96307 65.9784 1.62026C72.0194 0.277445 78.3337 0.947105 83.9586 3.52712C89.5835 6.10714 94.2103 10.4559 97.1335 15.9104C100.057 21.3648 101.116 27.6256 100.149 33.7381C98.7078 42.8361 92.4955 52.6877 84.4733 61.716C74.3846 73.0607 61.3541 83.1914 51.485 88.801C51.1772 88.972 50.8301 89.0593 50.478 89.0544C50.126 89.0495 49.7814 88.9524 49.4785 88.7729L49.4789 88.7736Z" fill="#F24535"/>
</svg>
