<svg width="24" height="16" viewBox="0 0 24 16" fill="none" xmlns="http://www.w3.org/2000/svg">
<rect x="0.25" y="0.25" width="23.5" height="15.5" rx="0.75" fill="white" stroke="#D8D8D8" stroke-width="0.5"/>
<path fill-rule="evenodd" clip-rule="evenodd" d="M12.1713 11.4386C11.3542 12.1241 10.2944 12.538 9.13619 12.538C6.55196 12.538 4.45703 10.4776 4.45703 7.93598C4.45703 5.39437 6.55196 3.33398 9.13619 3.33398C10.2944 3.33398 11.3542 3.74782 12.1713 4.43334C12.9884 3.74782 14.0483 3.33398 15.2064 3.33398C17.7907 3.33398 19.8856 5.39437 19.8856 7.93598C19.8856 10.4776 17.7907 12.538 15.2064 12.538C14.0483 12.538 12.9884 12.1241 12.1713 11.4386Z" fill="#ED0006"/>
<path fill-rule="evenodd" clip-rule="evenodd" d="M12.1714 11.4386C13.1775 10.5945 13.8154 9.33852 13.8154 7.93598C13.8154 6.53343 13.1775 5.27743 12.1714 4.43334C12.9885 3.74782 14.0484 3.33398 15.2065 3.33398C17.7907 3.33398 19.8857 5.39437 19.8857 7.93598C19.8857 10.4776 17.7907 12.538 15.2065 12.538C14.0484 12.538 12.9885 12.1241 12.1714 11.4386Z" fill="#F9A000"/>
<path fill-rule="evenodd" clip-rule="evenodd" d="M12.1714 11.4388C11.1653 10.5947 10.5273 9.33875 10.5273 7.93621C10.5273 6.53368 11.1653 5.27768 12.1714 4.43359C13.1774 5.27768 13.8154 6.53368 13.8154 7.93621C13.8154 9.33875 13.1774 10.5947 12.1714 11.4388Z" fill="#FF5E00"/>
</svg>
