<svg width="24" height="24" viewBox="0 0 24 24" fill="none" xmlns="http://www.w3.org/2000/svg">
<g clip-path="url(#clip0_102_532)">
<path d="M5.04745 7.57823H1.34974C0.604569 7.57823 0 6.97366 0 6.24256V3.23377C0 2.4886 0.604569 1.88403 1.34974 1.88403H5.04745C5.79262 1.88403 6.38313 2.4886 6.38313 3.23377V6.24256C6.39719 6.97366 5.79262 7.57823 5.04745 7.57823Z" fill="#EAD1FF"/>
<path d="M13.8488 7.57823H10.1511C9.40596 7.57823 8.80139 6.97366 8.80139 6.24256V3.23377C8.80139 2.4886 9.40596 1.88403 10.1511 1.88403H13.8488C14.594 1.88403 15.1845 2.4886 15.1845 3.23377V6.24256C15.1845 6.97366 14.594 7.57823 13.8488 7.57823Z" fill="#FFE07D"/>
<path d="M22.6502 7.57823H18.9525C18.2074 7.57823 17.6028 6.97366 17.6028 6.24256V3.23377C17.6028 2.4886 18.2074 1.88403 18.9525 1.88403H22.6502C23.3954 1.88403 23.9859 2.4886 23.9859 3.23377V6.24256C23.9859 6.97366 23.3954 7.57823 22.6502 7.57823Z" fill="#B3E59F"/>
<path d="M5.04745 14.8472H1.34974C0.604569 14.8472 0 14.2426 0 13.4974V10.4886C0 9.75752 0.604569 9.15295 1.34974 9.15295H5.04745C5.79262 9.15295 6.38313 9.75752 6.38313 10.4886V13.4974C6.39719 14.2426 5.79262 14.8472 5.04745 14.8472Z" fill="#C3DDFF"/>
<path d="M13.8488 14.8472H10.1511C9.40596 14.8472 8.80139 14.2426 8.80139 13.4974V10.4886C8.80139 9.75752 9.40596 9.15295 10.1511 9.15295H13.8488C14.594 9.15295 15.1845 9.75752 15.1845 10.4886V13.4974C15.1845 14.2426 14.594 14.8472 13.8488 14.8472Z" fill="#E2A975"/>
<path d="M22.6502 14.8472H18.9525C18.2074 14.8472 17.6028 14.2426 17.6028 13.4974V10.4886C17.6028 9.75752 18.2074 9.15295 18.9525 9.15295H22.6502C23.3954 9.15295 23.9859 9.75752 23.9859 10.4886V13.4974C23.9859 14.2426 23.3954 14.8472 22.6502 14.8472Z" fill="#FF9A9F"/>
<path d="M5.04745 22.116H1.34974C0.604569 22.116 0 21.5115 0 20.7663V17.7575C0 17.0123 0.604569 16.4078 1.34974 16.4078H5.04745C5.79262 16.4078 6.38313 17.0123 6.38313 17.7575V20.7663C6.39719 21.5115 5.79262 22.116 5.04745 22.116Z" fill="#E2F0CB"/>
<path d="M13.8488 22.116H10.1511C9.40596 22.116 8.80139 21.5115 8.80139 20.7663V17.7575C8.80139 17.0123 9.40596 16.4078 10.1511 16.4078H13.8488C14.594 16.4078 15.1845 17.0123 15.1845 17.7575V20.7663C15.1845 21.5115 14.594 22.116 13.8488 22.116Z" fill="#FFB7B2"/>
<path d="M22.6502 22.116H18.9525C18.2074 22.116 17.6028 21.5115 17.6028 20.7663V17.7575C17.6028 17.0123 18.2074 16.4078 18.9525 16.4078H22.6502C23.3954 16.4078 23.9859 17.0123 23.9859 17.7575V20.7663C23.9859 21.5115 23.3954 22.116 22.6502 22.116Z" fill="#B5EAD7"/>
</g>
<defs>
<clipPath id="clip0_102_532">
<rect width="24" height="24" fill="white"/>
</clipPath>
</defs>
</svg>
