<svg width="24" height="24" viewBox="0 0 24 24" fill="none" xmlns="http://www.w3.org/2000/svg">
<g clip-path="url(#clip0_102_145)">
<path d="M20.6152 6.08491C20.4284 6.08491 20.2355 6.01075 20.1036 5.87889L18.1213 3.89655C17.9894 3.76469 17.9153 3.58619 17.9153 3.39944C17.9153 3.21269 17.9894 3.01971 18.1213 2.88789L20.1036 0.904846C20.3673 0.641174 20.8342 0.641174 21.0979 0.904846L23.0953 2.90228C23.2272 3.03414 23.3014 3.21264 23.3014 3.39939C23.3014 3.58614 23.2272 3.76469 23.0953 3.8965L21.1123 5.87885C20.9805 6.01075 20.8019 6.08491 20.6152 6.08491Z" fill="#C5C9F7"/>
<path d="M6.37828 14.6385L9.36133 17.6216L17.6217 9.36117L14.6387 6.37813L6.37828 14.6385Z" fill="#C5C9F7"/>
<path d="M3.40234 23.2978C3.22244 23.2978 3.04253 23.2291 2.90524 23.0918L0.907798 21.095C0.775938 20.9632 0.701782 20.7847 0.701782 20.5979C0.701782 20.4112 0.775938 20.2326 0.907798 20.1008L2.89084 18.1185C3.16549 17.8438 3.61047 17.8438 3.88511 18.1185L5.88189 20.1152C6.15653 20.3899 6.15653 20.8349 5.88189 21.1095L3.89955 23.0918C3.76216 23.2291 3.58225 23.2978 3.40234 23.2978Z" fill="#C5C9F7"/>
<path d="M2.90524 23.0918C3.04259 23.2291 3.22249 23.2978 3.40235 23.2978C3.58221 23.2978 3.76216 23.2291 3.89946 23.0918L5.8818 21.1094C6.15644 20.8348 6.15644 20.3898 5.8818 20.1152L4.88341 19.1168L1.90662 22.0936L2.90524 23.0918Z" fill="#A8AFF1"/>
<path d="M20.1037 5.87889C20.2356 6.01075 20.4285 6.08491 20.6153 6.08491C20.802 6.08491 20.9806 6.01075 21.1124 5.87889L23.0954 3.89655C23.2273 3.76469 23.3014 3.58619 23.3014 3.39944C23.3014 3.21269 23.2273 3.03414 23.0954 2.90233L22.0967 1.90356L19.1125 4.88772L20.1037 5.87889Z" fill="#A8AFF1"/>
<path d="M16.1305 7.8699L7.87012 16.1303L9.36146 17.6217L17.6219 9.36124L16.1305 7.8699Z" fill="#A8AFF1"/>
<path d="M22.0965 10.8527L13.1472 1.90345L14.6388 0.411891C15.188 -0.137297 16.0784 -0.137297 16.6275 0.411891L23.5881 7.37245C24.1372 7.92164 24.1372 8.81203 23.5881 9.36117L22.0965 10.8527Z" fill="#1689FC"/>
<path d="M20.1078 13.8359L10.1641 3.89219C9.88948 3.61759 9.88948 3.17242 10.1641 2.89783L11.1584 1.90347C11.7076 1.35428 12.598 1.35428 13.1472 1.90347L22.0965 10.8528C22.6457 11.402 22.6457 12.2924 22.0965 12.8415L21.1021 13.8359C20.8275 14.1105 20.3824 14.1105 20.1078 13.8359Z" fill="#17ACE8"/>
<path d="M1.90345 13.1472L10.8528 22.0965L9.36122 23.5881C8.81203 24.1373 7.92164 24.1373 7.3725 23.5881L0.411891 16.6275C-0.137297 16.0783 -0.137297 15.1879 0.411891 14.6388L1.90345 13.1472Z" fill="#1689FC"/>
<path d="M3.89219 10.1641L13.8359 20.1078C14.1105 20.3824 14.1105 20.8276 13.8359 21.1022L12.8415 22.0965C12.2923 22.6457 11.4019 22.6457 10.8528 22.0965L1.90347 13.1473C1.35428 12.5981 1.35428 11.7077 1.90347 11.1585L2.89783 10.1642C3.17242 9.88954 3.61759 9.88954 3.89219 10.1641Z" fill="#17ACE8"/>
<path d="M7.37255 23.5882C7.92169 24.1373 8.81208 24.1373 9.36127 23.5882L10.8528 22.0966L6.37838 17.6221L3.89246 20.108L7.37255 23.5882Z" fill="#136EF1"/>
<path d="M17.6222 6.37826L22.0966 10.8528L23.5882 9.36124C24.1373 8.8121 24.1373 7.92171 23.5882 7.37252L20.1081 3.89233L17.6222 6.37826Z" fill="#136EF1"/>
<path d="M10.8527 22.0965C11.4019 22.6457 12.2923 22.6457 12.8415 22.0965L13.8359 21.1021C14.1105 20.8275 14.1105 20.3823 13.8359 20.1077L8.86422 15.1361L6.3783 17.622L10.8527 22.0965Z" fill="#1689FC"/>
<path d="M20.1079 13.8358C20.3825 14.1104 20.8277 14.1104 21.1022 13.8358L22.0966 12.8414C22.6457 12.2922 22.6457 11.4018 22.0966 10.8527L17.6222 6.37811L15.1362 8.86403L20.1079 13.8358Z" fill="#1689FC"/>
</g>
<defs>
<clipPath id="clip0_102_145">
<rect width="24" height="24" fill="white"/>
</clipPath>
</defs>
</svg>
