<svg width="32" height="32" viewBox="0 0 32 32" fill="none" xmlns="http://www.w3.org/2000/svg">
<g clip-path="url(#clip0_19_1821)">
<path d="M16 24C20.4183 24 24 20.4183 24 16C24 11.5817 20.4183 8 16 8C11.5817 8 8 11.5817 8 16C8 20.4183 11.5817 24 16 24Z" fill="#039BE5"/>
<path d="M11.6606 15.8268L19.3739 12.8528C19.7319 12.7235 20.0446 12.9401 19.9286 13.4815L19.9293 13.4808L18.6159 19.6681C18.5186 20.1068 18.2579 20.2135 17.8933 20.0068L15.8933 18.5328L14.9286 19.4621C14.8219 19.5688 14.7319 19.6588 14.5253 19.6588L14.6673 17.6235L18.3739 14.2748C18.5353 14.1328 18.3379 14.0528 18.1253 14.1941L13.5446 17.0781L11.5699 16.4621C11.1413 16.3261 11.1319 16.0335 11.6606 15.8268Z" fill="white"/>
</g>
<rect x="0.25" y="0.25" width="31.5" height="31.5" rx="15.75" stroke="#D8D8D8" stroke-width="0.5"/>
<defs>
<clipPath id="clip0_19_1821">
<rect width="16" height="16" fill="white" transform="translate(8 8)"/>
</clipPath>
</defs>
</svg>
