<svg width="25" height="24" viewBox="0 0 25 24" fill="none" xmlns="http://www.w3.org/2000/svg">
<path d="M19.875 12.5C19.875 11.12 20.995 10 22.375 10V9C22.375 5 21.375 4 17.375 4H7.375C3.375 4 2.375 5 2.375 9V9.5C3.755 9.5 4.875 10.62 4.875 12C4.875 13.38 3.755 14.5 2.375 14.5V15C2.375 19 3.375 20 7.375 20H17.375C21.375 20 22.375 19 22.375 15C20.995 15 19.875 13.88 19.875 12.5Z" stroke="#78787B" stroke-width="1.5" stroke-linecap="round" stroke-linejoin="round"/>
<path d="M10.375 4L10.375 20" stroke="#78787B" stroke-width="1.5" stroke-linecap="round" stroke-linejoin="round" stroke-dasharray="5 5"/>
</svg>
