<svg width="44" height="44" viewBox="0 0 44 44" fill="none" xmlns="http://www.w3.org/2000/svg">
<rect width="44" height="44" rx="22" fill="#FEE2D6"/>
<path d="M29.5 22.5C29.5 21.12 30.62 20 32 20V19C32 15 31 14 27 14H17C13 14 12 15 12 19V19.5C13.38 19.5 14.5 20.62 14.5 22C14.5 23.38 13.38 24.5 12 24.5V25C12 29 13 30 17 30H27C31 30 32 29 32 25C30.62 25 29.5 23.88 29.5 22.5Z" stroke="#F24535" stroke-width="1.5" stroke-linecap="round" stroke-linejoin="round"/>
<path d="M20 14L20 30" stroke="#F24535" stroke-width="1.5" stroke-linecap="round" stroke-linejoin="round" stroke-dasharray="5 5"/>
</svg>
