<svg width="24" height="24" viewBox="0 0 24 24" fill="none" xmlns="http://www.w3.org/2000/svg">
<g clip-path="url(#clip0_102_166)">
<path d="M16 23.2519L24 21.2683V4.19958L16 6.18311V23.2519Z" fill="#77BF9A"/>
<path d="M8 21.2683L16 23.2519L15.9998 6.18292L8 4.19958V21.2683Z" fill="#66A582"/>
<path d="M0 23.2519L7.99998 21.2683V4.19958L0 6.18311V23.2519Z" fill="#77BF9A"/>
<path d="M6.42389 12.2562C8.73661 12.2562 10.6114 10.3814 10.6114 8.06866C10.6114 5.75594 8.73661 3.8811 6.42389 3.8811C4.11116 3.8811 2.23633 5.75594 2.23633 8.06866C2.23633 10.3814 4.11116 12.2562 6.42389 12.2562Z" fill="#D6D8E0"/>
<path d="M10.6115 8.06868C10.6115 10.381 8.73653 12.2559 6.42371 12.2559C6.194 12.2559 5.96918 12.2373 5.74976 12.2016C7.74225 11.8798 9.26355 10.1518 9.26355 8.06868C9.26355 5.98557 7.74225 4.25757 5.74976 3.93529C5.96918 3.89953 6.194 3.88092 6.42371 3.88092C8.73653 3.88092 10.6115 5.75586 10.6115 8.06868Z" fill="#E7E8ED"/>
<path d="M7.3889 8.06868L6.42391 5.47168L5.45886 8.06868L6.42391 10.6656L7.3889 8.06868Z" fill="#DE5866"/>
<path d="M6.42397 4.24845C5.45892 4.24845 4.67383 3.46335 4.67383 2.49831C4.67383 1.53326 5.45892 0.748169 6.42397 0.748169C7.38901 0.748169 8.17411 1.53326 8.17411 2.49831C8.17411 3.46335 7.38901 4.24845 6.42397 4.24845ZM6.42397 1.48281C5.86403 1.48281 5.40852 1.93832 5.40852 2.49826C5.40852 3.05819 5.86403 3.5137 6.42397 3.5137C6.9839 3.5137 7.43941 3.05819 7.43941 2.49826C7.43941 1.93832 6.9839 1.48281 6.42397 1.48281Z" fill="#EAB74D"/>
<path d="M15.4911 14.1751C15.4911 16.1489 16.5008 17.8863 18.0313 18.9009C19.5618 17.8863 20.5715 16.1489 20.5715 14.1751C20.5715 14.1135 20.5706 14.052 20.5686 13.9908C20.4654 10.764 15.5972 10.764 15.494 13.9908C15.4921 14.052 15.4911 14.1135 15.4911 14.1751Z" fill="#DE5866"/>
<path d="M18.0314 15.6113C18.8023 15.6113 19.4272 14.9864 19.4272 14.2154C19.4272 13.4445 18.8023 12.8196 18.0314 12.8196C17.2604 12.8196 16.6355 13.4445 16.6355 14.2154C16.6355 14.9864 17.2604 15.6113 18.0314 15.6113Z" fill="white"/>
<path d="M18.3413 21.1685C18.3173 21.1685 18.2929 21.1661 18.2685 21.1613C17.7443 21.0558 17.2614 20.8792 16.7924 20.6212C16.6146 20.5234 16.5497 20.3 16.6475 20.1222C16.7452 19.9445 16.9685 19.8796 17.1464 19.9774C17.549 20.1988 17.9635 20.3505 18.4133 20.4409C18.6122 20.4809 18.7411 20.6746 18.701 20.8735C18.666 21.048 18.5127 21.1685 18.3413 21.1685ZM15.7828 19.8079C15.6961 19.8079 15.6091 19.7773 15.5391 19.7152C15.1799 19.3963 14.8425 19.0526 14.4701 18.6688C14.3289 18.5232 14.3324 18.2906 14.478 18.1494C14.6237 18.0081 14.8562 18.0116 14.9974 18.1572C15.3594 18.5303 15.6866 18.8637 16.0269 19.1658C16.1786 19.3005 16.1924 19.5327 16.0577 19.6844C15.9851 19.7662 15.8842 19.8079 15.7828 19.8079ZM2.27588 18.4921C2.19835 18.4921 2.12018 18.4676 2.05371 18.4171C1.89242 18.2942 1.86098 18.064 1.98367 17.9026C1.99934 17.8821 2.37477 17.3911 3.03467 16.7817C3.18367 16.6441 3.41613 16.6534 3.55376 16.8024C3.69139 16.9515 3.68214 17.1839 3.53309 17.3215C2.92413 17.8838 2.57191 18.3429 2.56844 18.3474C2.49609 18.4422 2.38658 18.4921 2.27588 18.4921ZM13.697 17.7397C13.6064 17.7397 13.5156 17.7064 13.4445 17.6391C13.0683 17.2829 12.7131 16.981 12.3588 16.7163C12.1962 16.5949 12.1629 16.3647 12.2843 16.2021C12.4057 16.0396 12.6359 16.0062 12.7985 16.1277C13.1759 16.4097 13.5526 16.7296 13.9497 17.1056C14.097 17.2451 14.1033 17.4776 13.9639 17.6249C13.8916 17.7012 13.7944 17.7397 13.697 17.7397ZM4.43045 16.4989C4.31373 16.4989 4.19897 16.4434 4.1277 16.3401C4.0125 16.1731 4.05458 15.9443 4.2216 15.8291C4.65702 15.5289 5.10421 15.2726 5.55061 15.0673C5.73507 14.9826 5.95307 15.0633 6.03781 15.2477C6.12254 15.432 6.04182 15.6501 5.85747 15.7349C5.44937 15.9224 5.03931 16.1577 4.63866 16.4339C4.57498 16.4779 4.50235 16.4989 4.43045 16.4989ZM11.3419 16.0006C11.2833 16.0006 11.2239 15.9865 11.1686 15.9569C10.9563 15.8431 10.7356 15.7358 10.5125 15.6379C10.306 15.5473 10.0955 15.4685 9.88692 15.404C9.69311 15.344 9.58462 15.1383 9.64462 14.9445C9.70462 14.7507 9.91033 14.6423 10.1041 14.7022C10.3392 14.7749 10.5759 14.8634 10.8078 14.9652C11.0484 15.0708 11.2865 15.1866 11.5157 15.3094C11.6945 15.4053 11.7618 15.6279 11.6659 15.8067C11.5997 15.9303 11.4729 16.0006 11.3419 16.0006ZM7.09288 15.2985C6.9238 15.2985 6.77162 15.181 6.73425 15.0091C6.6912 14.8108 6.81698 14.6152 7.01525 14.5721C7.53247 14.4598 8.05773 14.4136 8.56731 14.4347C8.77004 14.4432 8.92751 14.6143 8.91908 14.817C8.91066 15.0198 8.7384 15.177 8.5368 15.1688C8.08922 15.1501 7.62734 15.1909 7.1712 15.2901C7.14494 15.2958 7.11869 15.2985 7.09288 15.2985Z" fill="#3E4A56"/>
<path d="M19.9117 8.42917L21.0286 7.31229L22.1455 8.42917C22.2172 8.50088 22.3113 8.53678 22.4052 8.53678C22.4992 8.53678 22.5933 8.50092 22.665 8.42917C22.8084 8.28571 22.8084 8.0531 22.665 7.90969L21.2884 6.53307C21.1449 6.38961 20.9123 6.38961 20.7689 6.53307L19.3923 7.90969C19.2488 8.05315 19.2488 8.28576 19.3923 8.42917C19.5357 8.57263 19.7683 8.57263 19.9117 8.42917Z" fill="#66A582"/>
<path d="M21.2884 8.12133C21.1449 7.97787 20.9123 7.97787 20.7689 8.12133L19.3923 9.49795C19.2488 9.64141 19.2488 9.87401 19.3923 10.0174C19.5357 10.1609 19.7683 10.1609 19.9117 10.0174L20.6613 9.26789V10.6856C20.6613 10.8885 20.8257 11.053 21.0286 11.053C21.2315 11.053 21.396 10.8885 21.396 10.6856V9.26789L22.1455 10.0174C22.2172 10.0891 22.3113 10.125 22.4052 10.125C22.4992 10.125 22.5933 10.0892 22.665 10.0174C22.8084 9.87397 22.8084 9.64136 22.665 9.49795L21.2884 8.12133Z" fill="#66A582"/>
<path d="M13.1975 9.96753C13.1287 9.89862 13.0352 9.85992 12.9378 9.85992C12.8404 9.85992 12.7469 9.89862 12.6781 9.96753L11.3014 11.3442C11.158 11.4876 11.158 11.7202 11.3014 11.8636C11.4449 12.0071 11.6775 12.0071 11.8209 11.8636L12.9378 10.7467L14.0547 11.8636C14.1264 11.9354 14.2204 11.9712 14.3144 11.9712C14.4084 11.9712 14.5025 11.9354 14.5742 11.8636C14.7176 11.7202 14.7176 11.4876 14.5742 11.3442L13.1975 9.96753Z" fill="#77BF9A"/>
<path d="M13.1975 11.5558C13.0541 11.4123 12.8215 11.4123 12.6781 11.5558L11.3014 12.9324C11.158 13.0759 11.158 13.3085 11.3014 13.4519C11.4449 13.5953 11.6775 13.5953 11.8209 13.4519L12.5705 12.7023V14.1201C12.5705 14.3229 12.7349 14.4874 12.9378 14.4874C13.1407 14.4874 13.3051 14.3229 13.3051 14.1201V12.7023L14.0547 13.4519C14.1264 13.5236 14.2204 13.5595 14.3144 13.5595C14.4084 13.5595 14.5025 13.5236 14.5742 13.4519C14.7176 13.3084 14.7176 13.0758 14.5742 12.9324L13.1975 11.5558Z" fill="#77BF9A"/>
<path d="M6.42392 12.6235C3.91235 12.6235 1.86902 10.5802 1.86902 8.06864C1.86902 5.55706 3.91235 3.51373 6.42392 3.51373C8.9355 3.51373 10.9788 5.55706 10.9788 8.06864C10.9788 10.5802 8.9355 12.6235 6.42392 12.6235ZM6.42392 4.24848C4.31746 4.24848 2.60371 5.96222 2.60371 8.06869C2.60371 10.1752 4.31746 11.8889 6.42392 11.8889C8.53039 11.8889 10.2441 10.1752 10.2441 8.06869C10.2441 5.96222 8.53039 4.24848 6.42392 4.24848Z" fill="#EAB74D"/>
<path d="M7.3889 8.06866H5.45886L6.42391 10.6656L7.3889 8.06866Z" fill="#7DA2DC"/>
</g>
<defs>
<clipPath id="clip0_102_166">
<rect width="24" height="24" fill="white"/>
</clipPath>
</defs>
</svg>
