<svg width="24" height="16" viewBox="0 0 24 16" fill="none" xmlns="http://www.w3.org/2000/svg">
<rect x="0.25" y="0.25" width="23.5" height="15.5" rx="0.75" fill="white" stroke="#D8D8D8" stroke-width="0.5"/>
<path d="M10.2679 10.7215H8.91089L9.75966 5.61914H11.1166L10.2679 10.7215Z" fill="#00579F"/>
<path d="M15.1866 5.74457C14.919 5.64133 14.4944 5.52734 13.9695 5.52734C12.6294 5.52734 11.6857 6.2221 11.6799 7.2154C11.6688 7.94825 12.3556 8.35529 12.8692 8.59965C13.3943 8.84934 13.5727 9.01232 13.5727 9.23489C13.5674 9.57671 13.1485 9.73428 12.7578 9.73428C12.216 9.73428 11.9257 9.65304 11.4846 9.46287L11.3059 9.38134L11.116 10.5267C11.4342 10.6677 12.0206 10.7928 12.6294 10.7983C14.0533 10.7983 14.9803 10.1143 14.9913 9.05575C14.9967 8.47491 14.634 8.02985 13.8522 7.66616C13.3776 7.4327 13.0869 7.27528 13.0869 7.03641C13.0925 6.81925 13.3327 6.59683 13.8685 6.59683C14.3097 6.58593 14.6338 6.68903 14.8794 6.79219L15.0021 6.84638L15.1866 5.74457Z" fill="#00579F"/>
<path d="M16.9911 8.91394C17.1029 8.62082 17.5329 7.48633 17.5329 7.48633C17.5273 7.49723 17.6444 7.18779 17.7114 6.99784L17.8063 7.43749C17.8063 7.43749 18.0633 8.65884 18.1191 8.91394C17.907 8.91394 17.2592 8.91394 16.9911 8.91394ZM18.6662 5.61914H17.6165C17.2928 5.61914 17.0469 5.71134 16.9073 6.04249L14.8916 10.7215H16.3155C16.3155 10.7215 16.5499 10.0917 16.6003 9.95608C16.7565 9.95608 18.1416 9.95608 18.3426 9.95608C18.3815 10.1352 18.5045 10.7215 18.5045 10.7215H19.761L18.6662 5.61914Z" fill="#00579F"/>
<path d="M7.77735 5.61914L6.44839 9.09849L6.30317 8.39284C6.05747 7.57861 5.28691 6.69396 4.427 6.25409L5.64429 10.7161H7.07929L9.21229 5.61914H7.77735Z" fill="#00579F"/>
<path d="M5.21443 5.61914H3.03113L3.00879 5.72225C4.7119 6.14572 5.83984 7.16647 6.30326 8.39337L5.82864 6.04809C5.7505 5.72218 5.51037 5.62989 5.21443 5.61914Z" fill="#FAA61A"/>
</svg>
